<svg width="21" height="21" viewBox="0 0 21 21" fill="none" xmlns="http://www.w3.org/2000/svg">
<path fill-rule="evenodd" clip-rule="evenodd" d="M10.5 3.75C6.77208 3.75 3.75 6.77208 3.75 10.5C3.75 14.2279 6.77208 17.25 10.5 17.25C14.2279 17.25 17.25 14.2279 17.25 10.5C17.25 6.77208 14.2279 3.75 10.5 3.75ZM2.25 10.5C2.25 5.94365 5.94365 2.25 10.5 2.25C15.0563 2.25 18.75 5.94365 18.75 10.5C18.75 15.0563 15.0563 18.75 10.5 18.75C5.94365 18.75 2.25 15.0563 2.25 10.5ZM7.25 10.5C7.25 10.0858 7.58579 9.75 8 9.75H9.75V8C9.75 7.58579 10.0858 7.25 10.5 7.25C10.9142 7.25 11.25 7.58579 11.25 8V9.75H13C13.4142 9.75 13.75 10.0858 13.75 10.5C13.75 10.9142 13.4142 11.25 13 11.25H11.25V13C11.25 13.4142 10.9142 13.75 10.5 13.75C10.0858 13.75 9.75 13.4142 9.75 13V11.25H8C7.58579 11.25 7.25 10.9142 7.25 10.5Z" fill="#777777"/>
</svg>
