<svg width="24" height="24" viewBox="0 0 24 24" fill="none" xmlns="http://www.w3.org/2000/svg">
<path d="M12.7073 19.5712C11.6759 20.6027 10.2769 21.1821 8.81821 21.1821C7.35952 21.1821 5.96058 20.6027 4.92913 19.5712C3.89768 18.5398 3.31821 17.1408 3.31821 15.6821C3.31821 14.2234 3.89768 12.8245 4.92913 11.793L12.3537 4.36842C13.1039 3.61828 14.1213 3.19685 15.1822 3.19685C16.243 3.19685 17.2605 3.61828 18.0106 4.36842C18.7607 5.11857 19.1822 6.13598 19.1822 7.19685C19.1822 8.25771 18.7607 9.27513 18.0106 10.0253L12.0002 16.0357C11.5314 16.5045 10.8955 16.7679 10.2324 16.7679C9.56939 16.7679 8.9335 16.5045 8.46466 16.0357C7.99582 15.5668 7.73243 14.931 7.73243 14.2679C7.73243 13.6049 7.99582 12.969 8.46466 12.5001L13.768 7.19685L14.8286 8.25751L9.52532 13.5608C9.33778 13.7483 9.23243 14.0027 9.23243 14.2679C9.23243 14.5331 9.33778 14.7875 9.52532 14.975C9.71286 15.1626 9.96721 15.2679 10.2324 15.2679C10.4976 15.2679 10.752 15.1626 10.9395 14.975L16.9499 8.96461C17.1821 8.73247 17.3662 8.45687 17.4919 8.15356C17.6175 7.85024 17.6822 7.52515 17.6822 7.19685C17.6822 6.86854 17.6175 6.54345 17.4919 6.24014C17.3662 5.93683 17.1821 5.66123 16.9499 5.42908C16.7178 5.19693 16.4422 5.01279 16.1389 4.88715C15.8356 4.76151 15.5105 4.69685 15.1822 4.69685C14.8539 4.69685 14.5288 4.76151 14.2255 4.88715C13.9222 5.01279 13.6466 5.19693 13.4144 5.42908L5.98979 12.8537C5.23964 13.6038 4.81821 14.6213 4.81821 15.6821C4.81821 16.743 5.23964 17.7604 5.98979 18.5106C6.73993 19.2607 7.75735 19.6821 8.81821 19.6821C9.87908 19.6821 10.8965 19.2607 11.6466 18.5106L18.3642 11.793L19.4248 12.8537L12.7073 19.5712Z" fill="#4F4F4F"/>
</svg>
