<svg width="24" height="25" viewBox="0 0 24 25" fill="none" xmlns="http://www.w3.org/2000/svg">
<path d="M18.7595 5.36545C14.9935 1.59954 8.94338 1.59954 5.17746 5.36545C1.8437 8.69922 1.47328 13.7616 4.00447 17.5275L2.76975 21.3552L6.5974 20.1204C10.3016 22.6516 15.4257 22.2812 18.7595 18.9474C22.5254 15.1815 22.5254 9.06963 18.7595 5.36545Z" stroke="#00958C" stroke-width="1.5" stroke-linecap="round" stroke-linejoin="round"/>
<path d="M12 16.3242V16.3362" stroke="#00958C" stroke-width="1.5" stroke-linecap="round" stroke-linejoin="round"/>
<path d="M12.0008 11.7641C12.3029 11.7642 12.6001 11.6884 12.8651 11.5435C13.1301 11.3986 13.3545 11.1894 13.5174 10.935C13.6803 10.6807 13.7766 10.3895 13.7974 10.0881C13.8183 9.7868 13.7629 9.48509 13.6365 9.21076C13.5101 8.93644 13.3167 8.69834 13.0741 8.51839C12.8315 8.33844 12.5476 8.22243 12.2484 8.18104C11.9492 8.13965 11.6444 8.17422 11.362 8.28156C11.0797 8.3889 10.8289 8.56556 10.6328 8.79526" stroke="#00958C" stroke-width="1.5" stroke-linecap="round" stroke-linejoin="round"/>
<path d="M12 12.125V13.325" stroke="#00958C" stroke-width="1.5" stroke-linecap="round" stroke-linejoin="round"/>
</svg>
