<svg width="24" height="25" viewBox="0 0 24 25" fill="none" xmlns="http://www.w3.org/2000/svg">
<path d="M9.73041 6.2552C9.03872 5.57809 8.12299 5.17776 7.15623 5.12986C6.18947 5.08195 5.23865 5.38979 4.48341 5.9952C2.64041 7.4727 2.49191 10.2252 4.16591 11.8927L10.6819 18.3816C11.2672 18.9645 12.2136 18.9644 12.7989 18.3815L19.3144 11.8922C20.9884 10.2252 20.8394 7.4727 18.9964 5.9957C18.2409 5.39024 17.2899 5.08248 16.3229 5.13057C15.3559 5.17866 14.4401 5.57927 13.7484 6.2567L12.1779 7.7952C12.0611 7.90972 11.904 7.97386 11.7404 7.97386C11.5768 7.97386 11.4197 7.90972 11.3029 7.7952L9.73041 6.2552Z" stroke="#00958C" stroke-width="1.5" stroke-linecap="round" stroke-linejoin="round"/>
</svg>
