<svg width="26" height="21" viewBox="0 0 26 21" fill="none" xmlns="http://www.w3.org/2000/svg">
<path d="M9.97388 3.17295C9.05163 2.27013 7.83065 1.73636 6.54164 1.67249C5.25263 1.60862 3.98487 2.01906 2.97788 2.82628C0.520545 4.79628 0.322545 8.46628 2.55455 10.6896L11.5954 19.6928C12.1807 20.2757 13.1271 20.2757 13.7123 19.6928L22.7525 10.6889C24.9845 8.46628 24.7859 4.79628 22.3285 2.82695C21.3212 2.01967 20.0531 1.60932 18.7639 1.67344C17.4746 1.73756 16.2534 2.27171 15.3312 3.17495L13.2372 5.22628C13.0814 5.37897 12.872 5.4645 12.6539 5.4645C12.4358 5.4645 12.2263 5.37897 12.0705 5.22628L9.97388 3.17295Z" stroke="#DD5890" stroke-width="1.5" stroke-linecap="round" stroke-linejoin="round"/>
</svg>
