<svg width="18" height="19" viewBox="0 0 18 19" fill="none" xmlns="http://www.w3.org/2000/svg">
    <path d="M1 8.23775C1 7.26677 1.46994 6.35583 2.26119 5.79305L9 1L15.7388 5.79305C16.5301 6.35583 17 7.26677 17 8.23774V15.5C17 16.8807 15.8807 18 14.5 18H12.4C11.8477 18 11.4 17.5523 11.4 17V12.7045C11.4 12.4284 11.1761 12.2045 10.9 12.2045H7.1C6.82386 12.2045 6.6 12.4284 6.6 12.7045V17C6.6 17.5523 6.15228 18 5.6 18H3.5C2.11929 18 1 16.8807 1 15.5V8.23775Z"
          stroke="#00958C" stroke-width="1.5" stroke-linecap="round" stroke-linejoin="round"/>
</svg>
