<svg width="24" height="25" viewBox="0 0 24 25" fill="none" xmlns="http://www.w3.org/2000/svg">
    <path d="M10 14.125L21 3.125" stroke="#00958C" stroke-width="1.5" stroke-linecap="round" stroke-linejoin="round"/>
    <path d="M21 3.125L14.5 21.125C14.4561 21.2207 14.3857 21.3019 14.2971 21.3588C14.2084 21.4156 14.1053 21.4459 14 21.4459C13.8947 21.4459 13.7916 21.4156 13.703 21.3588C13.6143 21.3019 13.5439 21.2207 13.5 21.125L10 14.125L3.00001 10.625C2.90427 10.5811 2.82314 10.5107 2.76626 10.4221C2.70938 10.3334 2.67914 10.2303 2.67914 10.125C2.67914 10.0197 2.70938 9.91658 2.76626 9.82795C2.82314 9.73931 2.90427 9.66887 3.00001 9.625L21 3.125Z"
          stroke="#00958C" stroke-width="1.5" stroke-linecap="round" stroke-linejoin="round"/>
</svg>
