<svg width="24" height="25" viewBox="0 0 24 25" fill="none" xmlns="http://www.w3.org/2000/svg">
<path d="M10 5.125C10 4.59457 10.2107 4.08586 10.5858 3.71079C10.9609 3.33571 11.4696 3.125 12 3.125C12.5304 3.125 13.0391 3.33571 13.4142 3.71079C13.7893 4.08586 14 4.59457 14 5.125C15.1484 5.66803 16.1274 6.51333 16.8321 7.5703C17.5367 8.62727 17.9404 9.85607 18 11.125V14.125C18.0753 14.7467 18.2954 15.3421 18.6428 15.8631C18.9902 16.3842 19.4551 16.8164 20 17.125H4C4.54494 16.8164 5.00981 16.3842 5.35719 15.8631C5.70457 15.3421 5.92474 14.7467 6 14.125V11.125C6.05956 9.85607 6.4633 8.62727 7.16795 7.5703C7.8726 6.51333 8.85159 5.66803 10 5.125" stroke="#00958C" stroke-width="1.5" stroke-linecap="round" stroke-linejoin="round"/>
<path d="M9 17.125V18.125C9 18.9206 9.31607 19.6837 9.87868 20.2463C10.4413 20.8089 11.2044 21.125 12 21.125C12.7956 21.125 13.5587 20.8089 14.1213 20.2463C14.6839 19.6837 15 18.9206 15 18.125V17.125" stroke="#00958C" stroke-width="1.5" stroke-linecap="round" stroke-linejoin="round"/>
</svg>
