<svg width="24" height="24" viewBox="0 0 24 24" fill="none" xmlns="http://www.w3.org/2000/svg">
    <path d="M12.795 20H6C5.46957 20 4.96086 19.7893 4.58579 19.4142C4.21071 19.0391 4 18.5304 4 18V6C4 5.46957 4.21071 4.96086 4.58579 4.58579C4.96086 4.21071 5.46957 4 6 4H18C18.5304 4 19.0391 4.21071 19.4142 4.58579C19.7893 4.96086 20 5.46957 20 6V10"
          stroke="#777777" stroke-width="1.5" stroke-linecap="round" stroke-linejoin="round"/>
    <path d="M19 21C21.2091 21 23 19.2091 23 17C23 14.7909 21.2091 13 19 13C16.7909 13 15 14.7909 15 17C15 19.2091 16.7909 21 19 21Z"
          stroke="#777777" stroke-width="1.5" stroke-linecap="round" stroke-linejoin="round"/>
    <path d="M16 2V6" stroke="#777777" stroke-width="1.5" stroke-linecap="round" stroke-linejoin="round"/>
    <path d="M8 2V6" stroke="#777777" stroke-width="1.5" stroke-linecap="round" stroke-linejoin="round"/>
    <path d="M4 10H20" stroke="#777777" stroke-width="1.5" stroke-linecap="round" stroke-linejoin="round"/>
    <path d="M19 15.4961V17.0001L20 18.0001" stroke="#777777" stroke-width="1.5" stroke-linecap="round"
          stroke-linejoin="round"/>
</svg>
