<svg width="72" height="72" viewBox="0 0 72 72" fill="none" xmlns="http://www.w3.org/2000/svg">
<path d="M63 23.9968C64.5913 23.9968 66.1174 24.6289 67.2426 25.7541C68.3679 26.8794 69 28.4055 69 29.9968V41.9968C69 43.5881 68.3679 45.1142 67.2426 46.2394C66.1174 47.3646 64.5913 47.9968 63 47.9968H59.814C59.0826 53.7967 56.2598 59.1303 51.8752 62.9968C48.3288 66.1242 43.9577 68.1178 39.3228 68.7657C37.4995 69.0205 36 67.5044 36 65.6634C36 64.1907 37.2004 63.017 38.657 62.7997C42.4478 62.2339 45.9849 60.4677 48.7279 57.7247C52.1036 54.349 54 49.7707 54 44.9968V26.9968C54 22.2229 52.1036 17.6445 48.7279 14.2689C45.3523 10.8932 40.7739 8.99677 36 8.99677C31.2261 8.99677 26.6477 10.8932 23.2721 14.2689C19.8964 17.6445 18 22.2229 18 26.9968V47.9968H9C7.4087 47.9968 5.88258 47.3646 4.75736 46.2394C3.63214 45.1142 3 43.5881 3 41.9968V29.9968C3 28.4055 3.63214 26.8794 4.75736 25.7541C5.88258 24.6289 7.4087 23.9968 9 23.9968H12.186C12.9181 18.1975 15.7412 12.8646 20.1257 8.9988C24.5102 5.13301 30.1547 3 36 3C41.8453 3 47.4898 5.13301 51.8743 8.9988C56.2588 12.8646 59.0819 18.1975 59.814 23.9968H63ZM26.545 49.0618C24.6719 48.2583 24.1551 45.9516 25.2353 44.2232C25.9115 43.1414 27.3325 42.8284 28.4918 43.361C30.8385 44.4391 33.3993 45.001 36 44.9968C38.6007 45.001 41.1615 44.4391 43.5082 43.361C44.6675 42.8284 46.0885 43.1414 46.7647 44.2232C47.8449 45.9516 47.3281 48.2583 45.455 49.0618C42.4796 50.3383 39.2633 51.0018 36 50.9968C32.7367 51.0018 29.5204 50.3383 26.545 49.0618Z" fill="#777777"/>
</svg>
